<?xml version="1.0" encoding="UTF-8"?><svg xmlns="http://www.w3.org/2000/svg" xmlns:xlink="http://www.w3.org/1999/xlink" width="700" height="860" viewBox="10 110 700 860"><defs><linearGradient id="f"><stop offset="0"/><stop offset="1" stop-opacity="0"/></linearGradient><linearGradient id="e"><stop offset="0" stop-color="#729fcf"/><stop offset="1" stop-color="#3465a4"/></linearGradient><linearGradient id="d"><stop offset="0" stop-color="#fff"/><stop offset="1" stop-color="#fff" stop-opacity="0"/></linearGradient><linearGradient id="c"><stop offset="0" stop-color="#fff"/><stop offset="1" stop-color="#fff" stop-opacity="0"/></linearGradient><linearGradient id="b"><stop offset="0" stop-color="#fff"/><stop offset="1" stop-color="#fff" stop-opacity="0"/></linearGradient><linearGradient id="a"><stop offset="0"/><stop offset="1" stop-opacity="0"/></linearGradient><linearGradient id="g"><stop offset="0" stop-opacity="0"/><stop offset=".5"/><stop offset="1" stop-opacity="0"/></linearGradient><linearGradient id="k"><stop offset="0"/><stop offset="1" stop-opacity="0"/></linearGradient><linearGradient id="i"><stop offset="0" stop-color="#fff"/><stop offset="1" stop-color="#babdb6" stop-opacity="0"/></linearGradient><linearGradient id="j"><stop offset="0" stop-color="#888a85"/><stop offset="1" stop-color="#555753"/></linearGradient><linearGradient id="h"><stop offset="0" stop-color="#fff"/><stop offset="1" stop-color="#f8f8f8"/></linearGradient><linearGradient xlink:href="#a" id="w" x1="14.584077" x2="14.552828" y1="1.6392649" y2="2.4912448" gradientTransform="matrix(16.96776 0 0 27.05024 -46.83702 137.47147)" gradientUnits="userSpaceOnUse"/><linearGradient xlink:href="#b" id="v" x1="13.354311" x2="14.075844" y1="1.4866425" y2="2.4017651" gradientTransform="matrix(16.96776 0 0 20.10368 -46.83702 138.52975)" gradientUnits="userSpaceOnUse"/><linearGradient xlink:href="#c" id="u" x1="19.970377" x2="19.970377" y1="6.1167107" y2="2.53125" gradientTransform="matrix(22.3898 0 0 21.72478 -144.32174 155.10518)" gradientUnits="userSpaceOnUse"/><linearGradient xlink:href="#d" id="t" x1="16.8125" x2="16.8125" y1="1.875" y2="4.71875" gradientTransform="matrix(-22.3898 0 0 23.11111 638.46595 144.7369)" gradientUnits="userSpaceOnUse"/><linearGradient xlink:href="#e" id="s" x1="18.431311" x2="18.402472" y1="19.119474" y2="4.2702327" gradientTransform="matrix(22.3898 0 0 22.04134 -99.54228 128.20839)" gradientUnits="userSpaceOnUse"/><linearGradient xlink:href="#f" id="r" x1="19.452349" x2="19.685436" y1="13.174174" y2="27.095339" gradientTransform="matrix(20.77287 0 0 21.75566 -40.532308 155.37076)" gradientUnits="userSpaceOnUse"/><linearGradient xlink:href="#g" id="l" x1="302.85715" x2="302.85715" y1="366.64789" y2="609.50507" gradientTransform="matrix(1.01925 0 0 .49656 -12.238858 655.10373)" gradientUnits="userSpaceOnUse"/><radialGradient xlink:href="#h" id="q" cx="8.1435566" cy="7.2678967" r="38.158695" fx="8.1435566" fy="7.2678967" gradientTransform="matrix(16.5102 0 0 17.56057 6.9297437 160.30189)" gradientUnits="userSpaceOnUse"/><radialGradient xlink:href="#i" id="o" cx="33.966679" cy="35.736916" r="86.70845" fx="33.966679" fy="35.736916" gradientTransform="matrix(16.29742 0 0 17.7274 -48.594034 148.17911)" gradientUnits="userSpaceOnUse"/><radialGradient xlink:href="#j" id="p" cx="8.824419" cy="3.7561285" r="37.751713" fx="8.824419" fy="3.7561285" gradientTransform="matrix(16.42943 0 0 17.58495 8.3082047 159.18626)" gradientUnits="userSpaceOnUse"/><radialGradient xlink:href="#k" id="n" cx="605.71429" cy="486.64789" r="117.14286" fx="605.71429" fy="486.64789" gradientTransform="matrix(-1.01925 0 0 .49656 724.33207 655.10373)" gradientUnits="userSpaceOnUse"/><radialGradient xlink:href="#k" id="m" cx="605.71429" cy="486.64789" r="117.14286" fx="605.71429" fy="486.64789" gradientTransform="matrix(1.01925 0 0 .49656 -12.03827 655.10373)" gradientUnits="userSpaceOnUse"/></defs><path fill="none" d="M-64.879845 115.85568h850v850h-850z"/><path fill="url(#l)" d="M110.07101 837.16553h492.15161v120.59255H110.07101z" opacity=".40206185" overflow="visible" style="marker:none"/><path fill="url(#m)" d="M602.22264 837.16966v120.5859c52.4888.227 126.89238-27.01718 126.89235-60.30071 0-33.28353-58.57355-60.28518-126.89235-60.28519z" opacity=".40206185" overflow="visible" style="marker:none"/><path fill="url(#n)" d="M110.07102 837.16966v120.5859c-52.488809.227-126.892365-27.01718-126.892365-60.30071s58.573541-60.28518 126.892365-60.28519z" opacity=".40206185" overflow="visible" style="marker:none"/><rect width="591.75067" height="696.75452" x="63.453434" y="210.26743" fill="url(#o)" stroke="url(#p)" stroke-linecap="round" stroke-linejoin="round" stroke-width="16.96775818" display="block" overflow="visible" rx="19.496782" ry="19.496775" style="marker:none"/><rect width="558.86737" height="662.22137" x="80.462883" y="227.25279" fill="none" stroke="url(#q)" stroke-linecap="round" stroke-linejoin="round" stroke-width="16.96775436" display="block" overflow="visible" rx="2.5290198" ry="2.5290194" style="marker:none"/><path fill="none" stroke="#000" stroke-opacity=".01754384" stroke-width="16.77353477" d="M148.38947 244.10571v643.19017"/><path fill="none" stroke="#fff" stroke-opacity=".20467828" stroke-width="16.96776199" d="M165.26001 236.06706v645.07546"/><rect width="339.35535" height="16.967762" x="224.64708" y="303.59009" fill="#babdb6" display="block" overflow="visible" rx="2.3379254" ry="1.1095369" style="marker:none"/><rect width="339.35535" height="16.967762" x="224.64708" y="337.52563" fill="#babdb6" display="block" overflow="visible" rx="2.3379254" ry="1.1095369" style="marker:none"/><rect width="339.35535" height="16.967762" x="224.64708" y="371.46115" fill="#babdb6" display="block" overflow="visible" rx="2.3379254" ry="1.1095369" style="marker:none"/><rect width="339.35535" height="16.967762" x="224.64708" y="405.39667" fill="#babdb6" display="block" overflow="visible" rx="2.3379254" ry="1.1095369" style="marker:none"/><rect width="339.35535" height="16.967762" x="224.64708" y="439.33218" fill="#babdb6" display="block" overflow="visible" rx="2.3379254" ry="1.1095369" style="marker:none"/><rect width="339.35535" height="16.967762" x="224.64708" y="473.26773" fill="#babdb6" display="block" overflow="visible" rx="2.3379254" ry="1.1095369" style="marker:none"/><rect width="339.35535" height="16.967762" x="224.64708" y="507.20325" fill="#babdb6" display="block" overflow="visible" rx="2.3379254" ry="1.1095369" style="marker:none"/><rect width="339.35535" height="16.967762" x="224.64708" y="541.13879" fill="#babdb6" display="block" overflow="visible" rx="2.3379254" ry="1.1095369" style="marker:none"/><rect width="152.70996" height="16.967762" x="224.64693" y="575.07428" fill="#babdb6" display="block" overflow="visible" rx="1.0520667" ry="1.1095369" style="marker:none"/><rect width="339.35535" height="16.967762" x="224.64693" y="642.94531" fill="#babdb6" display="block" overflow="visible" rx="2.3379254" ry="1.1095369" style="marker:none"/><rect width="339.35535" height="16.967762" x="224.64693" y="676.88086" fill="#babdb6" display="block" overflow="visible" rx="2.3379254" ry="1.1095369" style="marker:none"/><rect width="339.35535" height="16.967762" x="224.64693" y="710.81641" fill="#babdb6" display="block" overflow="visible" rx="2.3379254" ry="1.1095369" style="marker:none"/><rect width="339.35535" height="16.967762" x="224.64693" y="744.75189" fill="#babdb6" display="block" overflow="visible" rx="2.3379254" ry="1.1095369" style="marker:none"/><rect width="237.5489" height="16.967762" x="224.64693" y="778.68744" fill="#babdb6" display="block" overflow="visible" rx="1.6365489" ry="1.1095369" style="marker:none"/><path fill="url(#r)" fill-rule="evenodd" d="m432.43201 682.39369-120.437-71.11528-116.06459 63.6308-9.25947-457.04771H437.5858l-5.15379 464.53219z" opacity=".28021976"/><path fill="url(#s)" fill-rule="evenodd" stroke="#204a87" stroke-width="16.96776009" d="M164.02713 210.57317s-3.17806-49.42404 45.48259-50.48452l169.87242-.601c19.64765 0 24.81603 11.60137 24.81603 27.18694v468.65569l-102.42522-88.16534-99.61909 88.16534-1.40307-444.72979-36.72366-.02732z"/><path fill="url(#t)" fill-rule="evenodd" d="M174.25733 201.98358c-.32595-13.34396 4.79611-32.77595 39.79212-33.83643l163.78115-.29914c10.40158 0 18.02401 2.84091 18.02401 13.56538l-.49478 147.49007H213.06006l-2.12097-127.13147-36.68176.21159z" opacity=".4450549"/><path fill="none" stroke="url(#u)" stroke-opacity=".19125683" stroke-width="16.9677639" d="m368.48018 188.37136 18.64248 15.3319-.47662 413.99252-85.68687-73.09983-81.33293 71.45888-.08484-418.52071 148.93878-9.16276z"/><path fill="url(#v)" d="m210.37067 217.70608-.74998-49.28948c-36.14981 0-35.99405 32.82515-35.99405 49.28948h36.74403z" opacity=".48295456" overflow="visible" style="marker:none"/><path fill="url(#w)" d="m210.37067 217.70608-.74998-35.86374c-38.99361.30423-35.99405 35.86374-35.99405 35.86374h36.74403z" opacity=".35795456" overflow="visible" style="marker:none"/></svg>