<?xml version="1.0" encoding="UTF-8" standalone="no"?>
<svg xmlns="http://www.w3.org/2000/svg" xmlns:xlink="http://www.w3.org/1999/xlink" width="48" height="48">
  <defs>
    <path id="p" fill="#fff" fill-opacity=".58031088" stroke="none" d="M34.1361785 11.97936876c-.03964603-.49091984-.06001346-.74944598-.5136616-.74913317l-12.9871367.00895521c-.3103272 0-.3507564-.14813582 0 0 .35075642.14813583 1.35883061.68093153 2.33110213.72512574 0 0 11.16985568.01703014 11.16969617.01505222z" display="block"/>
  </defs>
  <defs>
    <linearGradient id="h">
      <stop offset="0"/>
      <stop offset="1" stop-opacity="0"/>
    </linearGradient>
    <linearGradient id="a">
      <stop offset="0" stop-opacity="0"/>
      <stop offset=".5"/>
      <stop offset="1" stop-opacity="0"/>
    </linearGradient>
    <linearGradient xlink:href="#a" id="l" x1="302.85715" x2="302.85715" y1="366.64789" y2="609.50507" gradientTransform="matrix(2.77439 0 0 1.9697 -1892.179 -872.8854)" gradientUnits="userSpaceOnUse"/>
    <linearGradient id="i">
      <stop offset="0" stop-color="#a3a3a3"/>
      <stop offset="1" stop-color="#4c4c4c"/>
    </linearGradient>
    <linearGradient id="b">
      <stop offset="0" stop-color="#fafafa"/>
      <stop offset=".5" stop-color="#a8a8a8"/>
      <stop offset="1" stop-color="#cdcdcd"/>
    </linearGradient>
    <linearGradient xlink:href="#b" id="r" x1="25.875" x2="25.25" y1="10.625" y2="30.875" gradientTransform="matrix(1 0 0 1.2388 0 -7.880597)" gradientUnits="userSpaceOnUse"/>
    <linearGradient id="g">
      <stop offset="0"/>
      <stop offset="1" stop-opacity="0"/>
    </linearGradient>
    <linearGradient id="f">
      <stop offset="0" stop-color="#6194cb"/>
      <stop offset="1" stop-color="#729fcf"/>
    </linearGradient>
    <linearGradient id="d">
      <stop offset="0" stop-color="#fff" stop-opacity=".13402061"/>
      <stop offset="1" stop-color="#fff" stop-opacity=".05154639"/>
    </linearGradient>
    <linearGradient id="c">
      <stop offset="0" stop-color="#fff"/>
      <stop offset="1" stop-color="#fff" stop-opacity="0"/>
    </linearGradient>
    <linearGradient id="j">
      <stop offset="0" stop-color="#a0a0a0"/>
      <stop offset="1" stop-color="#a8a8a8"/>
    </linearGradient>
    <linearGradient id="e">
      <stop offset="0" stop-color="#fff" stop-opacity=".70059878"/>
      <stop offset="1" stop-color="#fff" stop-opacity="0"/>
    </linearGradient>
    <linearGradient xlink:href="#c" id="v" x1="19.116116" x2="19.426924" y1="28.946041" y2="51.912693" gradientTransform="scale(1.42154 .70346)" gradientUnits="userSpaceOnUse"/>
    <linearGradient xlink:href="#d" id="u" x1="14.899379" x2="22.715446" y1="27.059643" y2="41.836895" gradientTransform="matrix(1.5353 0 0 .65134 3.451418 2.448)" gradientUnits="userSpaceOnUse"/>
    <linearGradient xlink:href="#e" id="o" x1="5.2657914" x2="8.212224" y1="18.725863" y2="52.625851" gradientTransform="skewX(5.77) scale(1.4627 .68367)" gradientUnits="userSpaceOnUse"/>
    <linearGradient xlink:href="#f" id="t" x1="22.175976" x2="22.065331" y1="36.987999" y2="32.050499" gradientTransform="matrix(1 0 0 1.02212 52.05694 -1.323026)" gradientUnits="userSpaceOnUse"/>
    <linearGradient xlink:href="#g" id="q" x1="22.25" x2="19.75" y1="37.625" y2="14.875" gradientUnits="userSpaceOnUse"/>
    <radialGradient xlink:href="#h" id="n" cx="605.71429" cy="486.64789" r="117.14286" fx="605.71429" fy="486.64789" gradientTransform="matrix(-2.77439 0 0 1.9697 112.7623 -872.8854)" gradientUnits="userSpaceOnUse"/>
    <radialGradient xlink:href="#h" id="m" cx="605.71429" cy="486.64789" r="117.14286" fx="605.71429" fy="486.64789" gradientTransform="matrix(2.77439 0 0 1.9697 -1891.633 -872.8854)" gradientUnits="userSpaceOnUse"/>
    <radialGradient xlink:href="#i" id="s" cx="8.824419" cy="3.7561285" r="37.751713" fx="8.824419" fy="3.7561285" gradientTransform="matrix(.96827 0 0 1.04669 44.36453 -17.00717)" gradientUnits="userSpaceOnUse"/>
    <radialGradient xlink:href="#j" id="k" cx="26.106777" cy="38.195114" r="32.259769" fx="26.106777" fy="38.195114" gradientTransform="matrix(1.01564 0 .1031 1.00051 0 -.08369458)" gradientUnits="userSpaceOnUse"/>
  </defs>
  <path fill="url(#k)" stroke="#5a5a5a" stroke-linecap="round" stroke-linejoin="round" d="M4.6200285 38.651015c.041808.420455.4973856.840909.9111553.840909H36.667346c.41377 0 .785732-.420454.743924-.840909l-2.696617-27.119287c-.041808-.420454-.497386-.840908-.911155-.840908H21.080082c-.590546 0-1.209083-.379552-1.402861-.9603351l-1.103002-3.3058764c-.169252-.5072777-.54715-.7357947-1.314473-.7357947H2.3224188c-.4137696 0-.7857312.4204542-.7439232.8409082l3.0415329 32.121293z" color="#000" overflow="visible" style="marker:none"/>
  <path fill="#729fcf" stroke="#000" stroke-linecap="round" stroke-linejoin="round" stroke-width="1.00000036" d="M3.3386019 17.533487H34.488461" color="#000" opacity=".11363633" overflow="visible" style="marker:none"/>
  <path fill="#729fcf" stroke="#000" stroke-linecap="round" stroke-linejoin="round" stroke-width="1.00000024" d="M5.3301525 37.533487H35.317907m-29.9877545-2H35.317907" color="#000" opacity=".11363633" overflow="visible" style="marker:none"/>
  <g color="#000" transform="matrix(.02165 0 0 .01904 42.41538 36.93372)">
    <path fill="url(#l)" d="M-1559.2523-150.69685h1339.6335v478.35718h-1339.6335z" opacity=".40206185" overflow="visible" style="marker:none"/>
    <path fill="url(#m)" d="M-219.61876-150.68038v478.33079c142.874166.90045 345.40022-107.16966 345.40014-239.196175 0-132.026537-159.436816-239.134595-345.40014-239.134615z" opacity=".40206185" overflow="visible" style="marker:none"/>
    <path fill="url(#n)" d="M-1559.2523-150.68038v478.33079c-142.8742.90045-345.4002-107.16966-345.4002-239.196175 0-132.026537 159.4368-239.134595 345.4002-239.134615z" opacity=".40206185" overflow="visible" style="marker:none"/>
  </g>
  <path fill="url(#o)" d="M6.1717518 38.418674c.031356.310327-.1546248.517212-.475404.413769-.3207792-.103442-.548568-.310327-.579924-.620654L2.0868572 6.8445942c-.031356-.3103272.156594-.4977231.4669212-.4977231l14.7497526-.091446c.531284-.0032938.739429.0533059.879799.517212 0 0 1.085374 3.1127979 1.246234 3.6981049l-1.555596-2.9170359c-.26518-.4972627-.598744-.4137696-.97279-.4137696H3.7717775c-.3103272 0-.496308.2068848-.464952.517212L6.2856462 38.522116l-.1138944-.103442z" color="#000" display="block" overflow="visible" style="marker:none"/>
  <path fill="#729fcf" stroke="#000" stroke-linecap="round" stroke-linejoin="round" stroke-width=".99999982" d="M2.3052333 7.533487H17.088967" color="#000" opacity=".11363633" overflow="visible" style="marker:none"/>
  <path fill="#729fcf" stroke="#000" stroke-linecap="round" stroke-linejoin="round" stroke-width="1.00000012" d="M2.7573333 11.533487H33.496214" color="#000" opacity=".11363633" overflow="visible" style="marker:none"/>
  <use xlink:href="#p" fill-opacity=".58031088" display="block"/>
  <path fill="#729fcf" stroke="#000" stroke-linecap="round" stroke-linejoin="round" stroke-width=".99999994" d="M3.1628954 15.533487H33.993452" color="#000" opacity=".11363633" overflow="visible" style="marker:none"/>
  <path fill="#729fcf" stroke="#000" stroke-linecap="round" stroke-linejoin="round" stroke-width="1.00000024" d="M5.1594716 33.533487H35.147226" color="#000" opacity=".11363633" overflow="visible" style="marker:none"/>
  <path fill="#729fcf" stroke="#000" stroke-linecap="round" stroke-linejoin="round" stroke-width="1.00000036" d="M4.8658086 31.533487H34.974533m-30.3408963-2H34.802847m-30.3398913-2H34.632166" color="#000" opacity=".11363633" overflow="visible" style="marker:none"/>
  <path fill="#729fcf" stroke="#000" stroke-linecap="round" stroke-linejoin="round" d="M4.2556718 25.533487H34.460793" color="#000" opacity=".11363633" overflow="visible" style="marker:none"/>
  <path fill="#729fcf" stroke="#000" stroke-linecap="round" stroke-linejoin="round" stroke-width="1.00000024" d="M4.0235198 23.533487H34.289101m-30.4362621-2H34.11842" color="#000" opacity=".11363633" overflow="visible" style="marker:none"/>
  <use xlink:href="#p" fill-opacity=".5803109" display="block"/>
  <path fill="#729fcf" stroke="#000" stroke-linecap="round" stroke-linejoin="round" stroke-width="1.00000036" d="M2.9642313 13.533487H33.990735" color="#000" opacity=".11363633" overflow="visible" style="marker:none"/>
  <path fill="#729fcf" stroke="#000" stroke-linecap="round" stroke-linejoin="round" stroke-width="1.00000012" d="M3.6514189 19.533487H33.947215" color="#000" opacity=".11363633" overflow="visible" style="marker:none"/>
  <path fill="#729fcf" stroke="#000" stroke-linecap="round" stroke-linejoin="round" stroke-width="1.00000024" d="M2.5242572 9.5334871H17.805073" color="#000" opacity=".11363633" overflow="visible" style="marker:none"/>
  <path fill="url(#q)" d="M34.375 14.125 37 38.75l-31 .125-1.875-24.75h30.25z" color="#000" display="block" opacity=".39204545" overflow="visible" style="marker:none"/>
  <path fill="url(#r)" stroke="url(#s)" d="M43.375 2.4944033c.5 16.8787317-9.075063 18.5284757-6.012563 29.0002577L5.875 32.380598C4 19.527986 14.25 11.166045 11.25 2.649254l32.125-.1548507z" color="#000" display="block" overflow="visible" style="marker:none"/>
  <path fill="none" stroke="#a1a1a1" d="M15.4375 6.5624999H39" color="#000" display="block" overflow="visible" style="marker:none"/>
  <path fill="url(#t)" stroke="#3465a4" stroke-linejoin="round" stroke-width=".99999982" d="M5.7785654 39.065997c.103442.211469.310326.422928.6206519.422928H39.70767c.206892 0 .521164-.126305.708174-.264351.530402-.391535.65486-.612385.892782-.973467 2.448126-3.71546 5.805141-19.276893 5.805141-19.276893.103442-.21146-.103441-.42292-.413767-.42292H11.776358c-.310326 0-1.655965 16.10733-4.8629988 19.287023l-1.2382357 1.22768h.1034419z" color="#000" display="block" overflow="visible" style="marker:none"/>
  <path fill="none" stroke="#a1a1a1" d="M15.356073 8.5624999H35.08142" color="#000" display="block" overflow="visible" style="marker:none"/>
  <path fill="url(#u)" fill-rule="evenodd" d="M13.134476 20.138641c-.772747 4.990757-1.501301 9.009243-2.71599 13.513864 2.386485-.707107 7.116116-3.204505 17.116116-3.204505 10 0 16.723573-9.248699 17.651651-10.353553l-32.051777.044194z"/>
  <path fill="none" stroke="#a1a1a1" stroke-width="1.00000012" d="M15.143007 10.5625h24.314824" color="#000" display="block" overflow="visible" style="marker:none"/>
  <path fill="none" stroke="url(#v)" stroke-linecap="round" d="M45.820083 19.6875H12.661612s-2.147748 16.019607-4.7222722 18.240578c8.1210772 0 31.5711712-.048636 31.5909902-.048636 1.751659 0 4.907641-12.636194 6.289753-18.191942z" color="#000" opacity=".52272727" overflow="visible" style="marker:none"/>
  <path fill="none" stroke="#a1a1a1" stroke-width="1.00000024" d="M14.398767 12.5625h23.853392" color="#000" display="block" overflow="visible" style="marker:none"/>
  <path fill="none" stroke="#a1a1a1" stroke-width="1.00000048" d="M13.629028 14.5625h23.346303" color="#000" display="block" overflow="visible" style="marker:none"/>
  <path fill="none" stroke="#a1a1a1" stroke-width="1.00000024" d="M12.520679 16.5625H31.16684" color="#000" display="block" overflow="visible" style="marker:none"/>
  <path fill="#fff" d="M6.375 31.75C5.1336344 19.511961 13.5625 12.6875 12 2.9999999h30.875l-30 .625C14.125 13.1875 6.6786165 18.271447 6.375 31.75z" color="#000" display="block" overflow="visible" style="marker:none"/>
</svg>