<?xml version="1.0" encoding="UTF-8" standalone="no"?><svg xmlns="http://www.w3.org/2000/svg" xmlns:xlink="http://www.w3.org/1999/xlink" width="48" height="48"><defs><linearGradient id="h"><stop offset="0"/><stop offset="1" stop-opacity="0"/></linearGradient><linearGradient id="a"><stop offset="0" stop-opacity="0"/><stop offset=".5"/><stop offset="1" stop-opacity="0"/></linearGradient><linearGradient xlink:href="#a" id="s" x1="302.85715" x2="302.85715" y1="366.64789" y2="609.50507" gradientTransform="matrix(2.77439 0 0 1.9697 -1892.179 -872.8854)" gradientUnits="userSpaceOnUse"/><linearGradient id="k"><stop offset="0" stop-color="#fff"/><stop offset="1" stop-color="#f8f8f8"/></linearGradient><linearGradient id="i"><stop offset="0" stop-color="#a3a3a3"/><stop offset="1" stop-color="#4c4c4c"/></linearGradient><linearGradient id="j"><stop offset="0" stop-color="#fafafa"/><stop offset="1" stop-color="#bbb"/></linearGradient><linearGradient id="f"><stop offset="0" stop-color="#7d7d7d"/><stop offset=".5" stop-color="#b1b1b1"/><stop offset="1" stop-color="#686868"/></linearGradient><linearGradient id="q"><stop offset="0" stop-color="#729fcf" stop-opacity=".20784314"/><stop offset="1" stop-color="#729fcf" stop-opacity=".6761905"/></linearGradient><linearGradient id="r"><stop offset="0" stop-color="#fff"/><stop offset="1" stop-color="#fff" stop-opacity=".24761905"/></linearGradient><linearGradient id="n"><stop offset="0"/><stop offset="1" stop-opacity="0"/></linearGradient><linearGradient id="g"><stop offset="0" stop-color="#fff"/><stop offset=".5" stop-color="#fff" stop-opacity=".21904762"/><stop offset="1" stop-color="#fff"/></linearGradient><linearGradient id="e"><stop offset="0" stop-color="#8a8a8a"/><stop offset="1" stop-color="#484848"/></linearGradient><linearGradient id="o"><stop offset="0"/><stop offset="1" stop-opacity="0"/></linearGradient><linearGradient id="b"><stop offset="0" stop-color="#ffd1d1"/><stop offset=".5" stop-color="#ff1d1d"/><stop offset="1" stop-color="#6f0000"/></linearGradient><linearGradient id="c"><stop offset="0" stop-color="#c1c1c1"/><stop offset="1" stop-color="#acacac"/></linearGradient><linearGradient id="p"><stop offset="0" stop-color="#e7e2b8"/><stop offset="1" stop-color="#e7e2b8" stop-opacity="0"/></linearGradient><linearGradient id="d"><stop offset="0"/><stop offset="1" stop-color="#c9c9c9"/></linearGradient><linearGradient xlink:href="#b" id="H" x1="48.90625" x2="50.988335" y1="17.376184" y2="22.250591" gradientTransform="translate(-5.669292)" gradientUnits="userSpaceOnUse"/><linearGradient xlink:href="#c" id="I" x1="46" x2="47.6875" y1="19.8125" y2="22.625" gradientTransform="translate(-5.669292)" gradientUnits="userSpaceOnUse"/><linearGradient xlink:href="#d" id="K" x1="25.71875" x2="25.514589" y1="31.046875" y2="30.703125" gradientTransform="translate(-5.825542 .125)" gradientUnits="userSpaceOnUse"/><linearGradient xlink:href="#e" id="B" x1="27.366341" x2="31.335964" y1="26.580296" y2="30.557772" gradientTransform="matrix(-1 0 0 1 48.18409 0)" gradientUnits="userSpaceOnUse"/><linearGradient xlink:href="#f" id="C" x1="30.65625" x2="33.21875" y1="34" y2="31.0625" gradientTransform="matrix(-1.3346 0 0 1.2913 55.15793 -7.460658)" gradientUnits="userSpaceOnUse"/><linearGradient xlink:href="#g" id="D" x1="18.292673" x2="17.500893" y1="13.602121" y2="25.743469" gradientTransform="matrix(-1 0 0 1 44.17827 0)" gradientUnits="userSpaceOnUse"/><radialGradient xlink:href="#h" id="u" cx="605.71429" cy="486.64789" r="117.14286" fx="605.71429" fy="486.64789" gradientTransform="matrix(-2.77439 0 0 1.9697 112.7623 -872.8854)" gradientUnits="userSpaceOnUse"/><radialGradient xlink:href="#h" id="t" cx="605.71429" cy="486.64789" r="117.14286" fx="605.71429" fy="486.64789" gradientTransform="matrix(2.77439 0 0 1.9697 -1891.633 -872.8854)" gradientUnits="userSpaceOnUse"/><radialGradient id="m" cx="20.8921" cy="64.5679" r="5.257" fx="20.8921" fy="64.5679" gradientUnits="userSpaceOnUse"><stop offset="0" stop-color="#f0f0f0"/><stop offset="1" stop-color="#9a9a9a"/></radialGradient><radialGradient id="l" cx="20.8921" cy="114.5684" r="5.256" fx="20.8921" fy="114.5684" gradientUnits="userSpaceOnUse"><stop offset="0" stop-color="#f0f0f0"/><stop offset="1" stop-color="#9a9a9a"/></radialGradient><radialGradient xlink:href="#i" id="w" cx="8.824419" cy="3.7561285" r="37.751713" fx="8.824419" fy="3.7561285" gradientTransform="matrix(.96827 0 0 1.03277 3.353553 .646447)" gradientUnits="userSpaceOnUse"/><radialGradient xlink:href="#j" id="v" cx="33.966679" cy="35.736916" r="86.70845" fx="33.966679" fy="35.736916" gradientTransform="scale(.9605 1.04113)" gradientUnits="userSpaceOnUse"/><radialGradient xlink:href="#k" id="x" cx="8.1435566" cy="7.2678967" r="38.158695" fx="8.1435566" fy="7.2678967" gradientTransform="matrix(.96827 0 0 1.03277 3.353553 .646447)" gradientUnits="userSpaceOnUse"/><radialGradient xlink:href="#l" id="y" cx="20.8921" cy="114.5684" r="5.256" fx="20.8921" fy="114.5684" gradientTransform="translate(4.613529 3.979808) scale(.2297)" gradientUnits="userSpaceOnUse"/><radialGradient xlink:href="#m" id="z" cx="20.8921" cy="64.5679" r="5.257" fx="20.8921" fy="64.5679" gradientTransform="translate(4.613529 3.979808) scale(.2297)" gradientUnits="userSpaceOnUse"/><radialGradient xlink:href="#n" id="A" cx="24.130018" cy="37.967922" r="16.528622" fx="24.130018" fy="37.967922" gradientTransform="matrix(1 0 0 .23797 0 28.93278)" gradientUnits="userSpaceOnUse"/><radialGradient xlink:href="#o" id="G" cx="23.5625" cy="40.4375" r="19.5625" fx="23.5625" fy="40.4375" gradientTransform="matrix(1 0 0 .34824 0 26.35543)" gradientUnits="userSpaceOnUse"/><radialGradient xlink:href="#p" id="J" cx="29.053354" cy="27.640751" r="3.2408544" fx="29.053354" fy="27.640751" gradientTransform="matrix(2.92356 0 0 2.02972 -61.55532 -27.88417)" gradientUnits="userSpaceOnUse"/><radialGradient xlink:href="#q" id="E" cx="18.240929" cy="21.817987" r="8.3085051" fx="18.240929" fy="21.817987" gradientTransform="matrix(-1 0 0 1 43.352 0)" gradientUnits="userSpaceOnUse"/><radialGradient xlink:href="#r" id="F" cx="15.414371" cy="13.078408" r="6.65625" fx="15.414371" fy="13.078408" gradientTransform="matrix(2.59296 0 0 2.2521 -25.05976 -18.941)" gradientUnits="userSpaceOnUse"/></defs><g color="#000" transform="matrix(.02165 0 0 .01486 43.0076 42.68539)"><path fill="url(#s)" d="M-1559.2523-150.69685h1339.6335v478.35718h-1339.6335z" opacity=".40206185" overflow="visible" style="marker:none"/><path fill="url(#t)" d="M-219.61876-150.68038v478.33079c142.874166.90045 345.40022-107.16966 345.40014-239.196175 0-132.026537-159.436816-239.134595-345.40014-239.134615z" opacity=".40206185" overflow="visible" style="marker:none"/><path fill="url(#u)" d="M-1559.2523-150.68038v478.33079c-142.8742.90045-345.4002-107.16966-345.4002-239.196175 0-132.026537 159.4368-239.134595 345.4002-239.134615z" opacity=".40206185" overflow="visible" style="marker:none"/></g><path fill="none" stroke="#000" stroke-opacity=".01754385" stroke-width=".98855311" d="M11.505723 5.4942766V43.400869"/><rect width="34.875" height="40.920494" x="6.6035528" y="3.6464462" fill="url(#v)" stroke="url(#w)" stroke-linecap="round" stroke-linejoin="round" stroke-width=".99724436" color="#000" display="block" overflow="visible" rx="1.1449448" ry="1.1468204" style="marker:none" transform="matrix(1.00358 0 0 1.00194 -.12722 -.153534)"/><rect width="32.775887" height="38.946384" x="7.6660538" y="4.5839462" fill="none" stroke="url(#x)" stroke-linecap="round" stroke-linejoin="round" stroke-width=".99724436" color="#000" display="block" overflow="visible" rx=".14851625" ry=".14875954" style="marker:none" transform="matrix(1.00358 0 0 1.00194 -.12722 -.153534)"/><g transform="translate(.646447 -.03798933)"><path fill="#fff" d="M10.3484926 30.217151c0 .4531981-.36752.8204884-.8207181.8204884-.4534278 0-.8207181-.36752-.8207181-.8204884 0-.4534278.36752-.8207181.8207181-.8207181s.8207181.36752.8207181.8207181zm0-11.485c0 .4531981-.36752.8207181-.8207181.8207181-.4534278 0-.8207181-.36752-.8207181-.8207181 0-.4534278.36752-.8207181.8207181-.8207181s.8207181.36752.8207181.8207181z"/><path fill="url(#y)" d="M9.9950109 29.952326c0 .453204-.3675248.820499-.8207288.820499-.4534338 0-.8207289-.367524-.8207289-.820499 0-.453434.3675248-.820729.8207289-.820729.453204 0 .8207288.367525.8207288.820729z"/><path fill="url(#z)" d="M9.9950109 18.467176c0 .453204-.3675248.820729-.8207288.820729-.4534338 0-.8207289-.367525-.8207289-.820729 0-.453434.3675248-.820729.8207289-.820729.453204 0 .8207288.367525.8207288.820729z"/></g><path fill="none" stroke="#fff" stroke-opacity=".20467831" d="M12.5 5.0205154V43.038228"/><g fill="#9b9b9b" fill-opacity=".54970759" color="#000" transform="matrix(.9091 0 0 1 2.363628 0)"><rect width="22.000004" height="1" x="15.000002" y="9" display="block" overflow="visible" rx=".15156493" ry=".06539088" style="marker:none"/><rect width="22.000004" height="1" x="15.000002" y="11" display="block" overflow="visible" rx=".15156493" ry=".06539088" style="marker:none"/><rect width="22.000004" height="1" x="15.000002" y="13" display="block" overflow="visible" rx=".15156493" ry=".06539088" style="marker:none"/><rect width="22.000004" height="1" x="15.000002" y="15" display="block" overflow="visible" rx=".15156493" ry=".06539088" style="marker:none"/><rect width="22.000004" height="1" x="15.000002" y="17" display="block" overflow="visible" rx=".15156493" ry=".06539088" style="marker:none"/><rect width="22.000004" height="1" x="15.000002" y="19" display="block" overflow="visible" rx=".15156493" ry=".06539088" style="marker:none"/><rect width="22.000004" height="1" x="15.000002" y="21" display="block" overflow="visible" rx=".15156493" ry=".06539088" style="marker:none"/><rect width="22.000004" height="1" x="15.000002" y="23" display="block" overflow="visible" rx=".15156493" ry=".06539088" style="marker:none"/><rect width="9.9000053" height="1" x="14.999992" y="25" display="block" overflow="visible" rx=".06820424" ry=".06539088" style="marker:none"/><rect width="22.000004" height="1" x="14.999992" y="29" display="block" overflow="visible" rx=".15156493" ry=".06539088" style="marker:none"/><rect width="22.000004" height="1" x="14.999992" y="31" display="block" overflow="visible" rx=".15156493" ry=".06539088" style="marker:none"/><rect width="22.000004" height="1" x="14.999992" y="33" display="block" overflow="visible" rx=".15156493" ry=".06539088" style="marker:none"/><rect width="22.000004" height="1" x="14.999992" y="35" display="block" overflow="visible" rx=".15156493" ry=".06539088" style="marker:none"/><rect width="15.400014" height="1" x="14.999992" y="37" display="block" overflow="visible" rx=".10609552" ry=".06539088" style="marker:none"/></g><path fill="url(#A)" fill-rule="evenodd" d="M40.65864 37.967922a16.528622 3.9332814 0 1 1-33.0572434 0 16.528622 3.9332814 0 1 1 33.0572434 0z" color="#000" opacity=".17112301" overflow="visible" style="marker:none" transform="matrix(.96242 0 0 1.01137 -7.130766 -7.903209)"/><g color="#000" transform="translate(-1.000325 -.85088)"><path fill="#dcdcdc" fill-rule="evenodd" stroke="url(#B)" stroke-linecap="round" stroke-miterlimit="10" stroke-width="3.10908341" d="M18.627569 3.1435548c-8.13913 0-14.7448008 6.6056711-14.7448008 14.7448012 0 8.13913 6.6056708 14.744802 14.7448008 14.744802 3.479555 0 6.551001-1.384393 9.073723-3.402647-.205377 1.006881-.078035 2.035368.756144 2.759925l10.964084 9.52741c1.233416 1.071329 3.087462.93096 4.15879-.302457 1.071328-1.233418.930959-3.087462-.302457-4.15879l-10.964084-9.527411c-.671527-.583279-1.492878-.755969-2.306238-.642722 1.9867-2.512422 3.364839-5.548803 3.364839-8.99811 0-8.1391301-6.605671-14.7448012-14.744801-14.7448012zm-.075615 1.2261833c7.639459 0 13.291775 4.7889505 13.291775 13.2917749 0 8.675113-5.81669 13.291775-13.291775 13.291775-7.302949 0-13.2917734-5.478092-13.2917734-13.291775 0-7.9841069 5.8246384-13.291775 13.2917734-13.2917749z" overflow="visible" style="marker:none" transform="matrix(-.64328 0 0 .64328 31.49802 4.828704)"/><path fill="#dcdcdc" fill-rule="evenodd" d="M18.602905 3.0803551c-8.16544 0-14.7924642 6.627024-14.7924642 14.7924639 0 8.16544 6.6270242 14.792464 14.7924642 14.792464 3.490803 0 6.572177-1.388867 9.103055-3.413645-.206041 1.010136-.078288 2.041947.758587 2.768846l10.999526 9.558207c1.237403 1.074792 3.097442.93397 4.172233-.303435 1.074791-1.237404.933968-3.097442-.303435-4.172233l-10.999525-9.558208c-.673698-.585164-1.497704-.758413-2.313693-.644799 1.993122-2.520544 3.375716-5.56674 3.375716-9.027197 0-8.1654399-6.627024-14.7924639-14.792464-14.7924639zm-.075859 3.1860692c6.281108 2e-7 11.378818 5.0977107 11.378818 11.3788187s-5.09771 11.378818-11.378818 11.378818c-6.281108 0-11.3788184-5.09771-11.3788184-11.378818 2e-7-6.281108 5.0977104-11.3788187 11.3788184-11.3788187z" overflow="visible" style="marker:none" transform="matrix(-.64328 0 0 .64328 31.49802 4.828704)"/><path fill="url(#C)" fill-rule="evenodd" d="M39.507004 41.57769c-.478672-2.273187 1.39733-4.811422 3.584053-4.788375L32.33069 27.531204c-2.944791-.056706-4.269502 2.272616-3.776814 4.599922l10.953128 9.446564z" overflow="visible" style="marker:none" transform="matrix(-.64328 0 0 .64328 31.49802 4.828704)"/><path fill="none" stroke="url(#D)" stroke-linecap="round" stroke-miterlimit="10" stroke-width="1.24788225" d="M28.549437 18.920233a11.048544 11.048544 0 1 1-22.0970883 0 11.048544 11.048544 0 1 1 22.0970883 0z" overflow="visible" style="marker:none" transform="matrix(-.80136 0 0 .80136 33.70147 .855159)"/><rect width="19.048439" height="4.4404783" x="40.373337" y=".14086054" fill="none" stroke="#fff" stroke-linecap="round" stroke-miterlimit="10" stroke-width="1.55458939" opacity=".43315507" overflow="visible" rx="3.3215265" ry="2.9348745" style="marker:none" transform="matrix(-.48438 .4233 .41742 .48945 31.49802 4.828704)"/><path fill="url(#E)" fill-rule="evenodd" stroke="#3063a3" stroke-linecap="round" stroke-miterlimit="10" stroke-width="1.11148739" d="M25.897786 18.478292a8.3085051 8.3085051 0 1 1-16.61701 0 8.3085051 8.3085051 0 1 1 16.61701 0z" style="marker:none" transform="matrix(-.8997 0 0 .8997 35.502 -.509826)"/><path fill="url(#F)" fill-rule="evenodd" d="M18.156915 7.3966938c-5.20759 0-9.4245469 4.2169572-9.4245469 9.4245472 0 1.503975.4203072 2.887773 1.0471719 4.149903 1.25238.461613 2.582757.775683 3.994767.775683 6.170955 0 11.099282-4.861637 11.480106-10.937129-1.730964-2.0455312-4.210039-3.4130042-7.097498-3.4130042z" opacity=".83422457" overflow="visible" style="marker:none" transform="translate(7.855933 4.828704) scale(.64328)"/></g><path fill="url(#G)" fill-rule="evenodd" d="M43.125 40.4375a19.5625 6.8125 0 1 1-39.125 0 19.5625 6.8125 0 1 1 39.125 0z" color="#000" opacity=".2" overflow="visible" style="marker:none" transform="matrix(.61661 0 0 .29358 12.73816 29.12848)"/><g fill-rule="evenodd" color="#000" transform="matrix(1.0337 -.27698 .27698 1.0337 16.06828 -14.54823)"><path fill="#cb9022" stroke="#5c410c" stroke-width=".93443578" d="m17.34116 32.5 5.625-5.625 20.093749-9.75c3.25-1.25 5.1875 3.375 2.3125 5L25.34116 31.5l-8 1z" overflow="visible" style="marker:none" transform="translate(-29.75546 19)"/><path fill="url(#H)" d="M38.330708 20s1.4375.09375 2 1.34375c.579493 1.287761 0 2.65625 0 2.65625l5.03125-2.46875s1.452032-.881367.65625-2.84375c-.784912-1.935577-2.6875-1.15625-2.6875-1.15625l-5 2.46875z" overflow="visible" style="marker:none" transform="translate(-29.75546 19)"/><path fill="url(#I)" d="M38.330708 20s1.4375.09375 2 1.34375c.579493 1.287761 0 2.65625 0 2.65625l2-1s.827032-1.318867.21875-2.6875c-.625-1.40625-2.21875-1.3125-2.21875-1.3125l-2 1z" overflow="visible" style="marker:none" transform="translate(-29.75546 19)"/><path fill="url(#J)" d="m18.768208 31.78125 4.5-4.5c1.5.8125 2.28125 2.15625 1.875 3.71875l-6.375.78125z" overflow="visible" style="marker:none" transform="translate(-29.75546 19)"/><path fill="url(#K)" d="m20.111958 30.375-1.625 1.59375 2.34375-.3125c.21875-.71875-.1875-1.0625-.71875-1.28125z" overflow="visible" style="marker:none" transform="translate(-29.75546 19)"/><path fill="#fff" fill-opacity=".36363639" d="m23.268208 27.25 1.5625 1.25 15.38734-7.31867c-.444432-.856044-1.241767-1.084597-1.903379-1.162262L23.268208 27.25z" overflow="visible" style="marker:none" transform="translate(-29.75546 19)"/><path fill-opacity=".36363639" d="m25.143208 31.0625.1875-.75 15.23109-7.1296s-.11016.613627-.215879.74935L25.143208 31.0625z" overflow="visible" style="marker:none" transform="translate(-29.75546 19)"/></g></svg>