<?xml version="1.0" encoding="UTF-8" standalone="no"?>
<svg xmlns="http://www.w3.org/2000/svg" xmlns:xlink="http://www.w3.org/1999/xlink" width="48" height="48">
  <defs>
    <linearGradient id="e">
      <stop offset="0"/>
      <stop offset="1" stop-opacity="0"/>
    </linearGradient>
    <linearGradient id="a">
      <stop offset="0" stop-opacity="0"/>
      <stop offset=".5"/>
      <stop offset="1" stop-opacity="0"/>
    </linearGradient>
    <linearGradient xlink:href="#a" id="n" x1="302.85715" x2="302.85715" y1="366.64789" y2="609.50507" gradientTransform="matrix(2.77439 0 0 1.9697 -1892.179 -872.8854)" gradientUnits="userSpaceOnUse"/>
    <linearGradient id="h">
      <stop offset="0" stop-color="#fff"/>
      <stop offset="1" stop-color="#f8f8f8"/>
    </linearGradient>
    <linearGradient id="f">
      <stop offset="0" stop-color="#a3a3a3"/>
      <stop offset="1" stop-color="#4c4c4c"/>
    </linearGradient>
    <linearGradient id="g">
      <stop offset="0" stop-color="#fafafa"/>
      <stop offset="1" stop-color="#bbb"/>
    </linearGradient>
    <linearGradient id="c">
      <stop offset="0" stop-color="#7d7d7d"/>
      <stop offset=".5" stop-color="#b1b1b1"/>
      <stop offset="1" stop-color="#686868"/>
    </linearGradient>
    <linearGradient id="l">
      <stop offset="0" stop-color="#729fcf" stop-opacity=".20784314"/>
      <stop offset="1" stop-color="#729fcf" stop-opacity=".6761905"/>
    </linearGradient>
    <linearGradient id="m">
      <stop offset="0" stop-color="#fff"/>
      <stop offset="1" stop-color="#fff" stop-opacity=".24761905"/>
    </linearGradient>
    <linearGradient id="k">
      <stop offset="0"/>
      <stop offset="1" stop-opacity="0"/>
    </linearGradient>
    <linearGradient id="d">
      <stop offset="0" stop-color="#fff"/>
      <stop offset=".5" stop-color="#fff" stop-opacity=".21904762"/>
      <stop offset="1" stop-color="#fff"/>
    </linearGradient>
    <linearGradient id="b">
      <stop offset="0" stop-color="#8a8a8a"/>
      <stop offset="1" stop-color="#484848"/>
    </linearGradient>
    <linearGradient xlink:href="#b" id="w" x1="27.366341" x2="31.335964" y1="26.580296" y2="30.557772" gradientUnits="userSpaceOnUse"/>
    <linearGradient xlink:href="#c" id="x" x1="30.65625" x2="33.21875" y1="34" y2="31.0625" gradientTransform="matrix(1.3346 0 0 1.2913 -6.973842 -7.460658)" gradientUnits="userSpaceOnUse"/>
    <linearGradient xlink:href="#d" id="y" x1="18.292673" x2="17.500893" y1="13.602121" y2="25.743469" gradientUnits="userSpaceOnUse"/>
    <radialGradient xlink:href="#e" id="p" cx="605.71429" cy="486.64789" r="117.14286" fx="605.71429" fy="486.64789" gradientTransform="matrix(-2.77439 0 0 1.9697 112.7623 -872.8854)" gradientUnits="userSpaceOnUse"/>
    <radialGradient xlink:href="#e" id="o" cx="605.71429" cy="486.64789" r="117.14286" fx="605.71429" fy="486.64789" gradientTransform="matrix(2.77439 0 0 1.9697 -1891.633 -872.8854)" gradientUnits="userSpaceOnUse"/>
    <radialGradient id="j" cx="20.8921" cy="64.5679" r="5.257" fx="20.8921" fy="64.5679" gradientUnits="userSpaceOnUse">
      <stop offset="0" stop-color="#f0f0f0"/>
      <stop offset="1" stop-color="#9a9a9a"/>
    </radialGradient>
    <radialGradient id="i" cx="20.8921" cy="114.5684" r="5.256" fx="20.8921" fy="114.5684" gradientUnits="userSpaceOnUse">
      <stop offset="0" stop-color="#f0f0f0"/>
      <stop offset="1" stop-color="#9a9a9a"/>
    </radialGradient>
    <radialGradient xlink:href="#f" id="r" cx="8.824419" cy="3.7561285" r="37.751713" fx="8.824419" fy="3.7561285" gradientTransform="matrix(.96827 0 0 1.03277 3.353553 .646447)" gradientUnits="userSpaceOnUse"/>
    <radialGradient xlink:href="#g" id="q" cx="33.966679" cy="35.736916" r="86.70845" fx="33.966679" fy="35.736916" gradientTransform="scale(.9605 1.04113)" gradientUnits="userSpaceOnUse"/>
    <radialGradient xlink:href="#h" id="s" cx="8.1435566" cy="7.2678967" r="38.158695" fx="8.1435566" fy="7.2678967" gradientTransform="matrix(.96827 0 0 1.03277 3.353553 .646447)" gradientUnits="userSpaceOnUse"/>
    <radialGradient xlink:href="#i" id="t" cx="20.8921" cy="114.5684" r="5.256" fx="20.8921" fy="114.5684" gradientTransform="translate(4.613529 3.979808) scale(.2297)" gradientUnits="userSpaceOnUse"/>
    <radialGradient xlink:href="#j" id="u" cx="20.8921" cy="64.5679" r="5.257" fx="20.8921" fy="64.5679" gradientTransform="translate(4.613529 3.979808) scale(.2297)" gradientUnits="userSpaceOnUse"/>
    <radialGradient xlink:href="#k" id="v" cx="24.130018" cy="37.967922" r="16.528622" fx="24.130018" fy="37.967922" gradientTransform="matrix(1 0 0 .23797 0 28.93278)" gradientUnits="userSpaceOnUse"/>
    <radialGradient xlink:href="#l" id="z" cx="18.240929" cy="21.817987" r="8.3085051" fx="18.240929" fy="21.817987" gradientUnits="userSpaceOnUse"/>
    <radialGradient xlink:href="#m" id="A" cx="15.414371" cy="13.078408" r="6.65625" fx="15.414371" fy="13.078408" gradientTransform="matrix(2.59296 0 0 2.2521 -25.05975 -18.941)" gradientUnits="userSpaceOnUse"/>
  </defs>
  <g transform="matrix(.02165 0 0 .01486 43.0076 42.68539)">
    <path fill="url(#n)" d="M-1559.2523-150.69685h1339.6335v478.35718h-1339.6335z" color="#000" opacity=".40206185" overflow="visible" style="marker:none"/>
    <path fill="url(#o)" d="M-219.61876-150.68038v478.33079c142.874166.90045 345.40022-107.16966 345.40014-239.196175 0-132.026537-159.436816-239.134595-345.40014-239.134615z" color="#000" opacity=".40206185" overflow="visible" style="marker:none"/>
    <path fill="url(#p)" d="M-1559.2523-150.68038v478.33079c-142.8742.90045-345.4002-107.16966-345.4002-239.196175 0-132.026537 159.4368-239.134595 345.4002-239.134615z" color="#000" opacity=".40206185" overflow="visible" style="marker:none"/>
  </g>
  <rect width="34.875" height="40.920494" x="6.6035528" y="3.6464462" fill="url(#q)" stroke="url(#r)" stroke-linecap="round" stroke-linejoin="round" color="#000" display="block" overflow="visible" ry="1.1490486" style="marker:none"/>
  <rect width="32.775887" height="38.946384" x="7.6660538" y="4.5839462" fill="none" stroke="url(#s)" stroke-linecap="round" stroke-linejoin="round" color="#000" display="block" overflow="visible" rx=".14904857" ry=".14904857" style="marker:none"/>
  <g transform="translate(.646447 -.03798933)">
    <path fill="#fff" d="M10.3484926 30.217151c0 .4531981-.36752.8204884-.8207181.8204884-.4534278 0-.8207181-.36752-.8207181-.8204884 0-.4534278.36752-.8207181.8207181-.8207181s.8207181.36752.8207181.8207181zm0-11.485c0 .4531981-.36752.8207181-.8207181.8207181-.4534278 0-.8207181-.36752-.8207181-.8207181 0-.4534278.36752-.8207181.8207181-.8207181s.8207181.36752.8207181.8207181z"/>
    <path fill="url(#t)" d="M9.9950109 29.952326c0 .453204-.3675248.820499-.8207288.820499-.4534338 0-.8207289-.367524-.8207289-.820499 0-.453434.3675248-.820729.8207289-.820729.453204 0 .8207288.367525.8207288.820729z"/>
    <path fill="url(#u)" d="M9.9950109 18.467176c0 .453204-.3675248.820729-.8207288.820729-.4534338 0-.8207289-.367525-.8207289-.820729 0-.453434.3675248-.820729.8207289-.820729.453204 0 .8207288.367525.8207288.820729z"/>
  </g>
  <path fill="none" stroke="#000" stroke-opacity=".01754385" stroke-width=".98855311" d="M11.505723 5.4942766V43.400869"/>
  <path fill="none" stroke="#fff" stroke-opacity=".20467831" d="M12.5 5.0205154V43.038228"/>
  <g transform="matrix(.9091 0 0 1 2.363628 0)">
    <rect width="22.000004" height="1" x="15.000002" y="9" fill="#9b9b9b" fill-opacity=".54970759" color="#000" display="block" overflow="visible" rx=".15156493" ry=".06539088" style="marker:none"/>
    <rect width="22.000004" height="1" x="15.000002" y="11" fill="#9b9b9b" fill-opacity=".54970759" color="#000" display="block" overflow="visible" rx=".15156493" ry=".06539088" style="marker:none"/>
    <rect width="22.000004" height="1" x="15.000002" y="13" fill="#9b9b9b" fill-opacity=".54970759" color="#000" display="block" overflow="visible" rx=".15156493" ry=".06539088" style="marker:none"/>
    <rect width="22.000004" height="1" x="15.000002" y="15" fill="#9b9b9b" fill-opacity=".54970759" color="#000" display="block" overflow="visible" rx=".15156493" ry=".06539088" style="marker:none"/>
    <rect width="22.000004" height="1" x="15.000002" y="17" fill="#9b9b9b" fill-opacity=".54970759" color="#000" display="block" overflow="visible" rx=".15156493" ry=".06539088" style="marker:none"/>
    <rect width="22.000004" height="1" x="15.000002" y="19" fill="#9b9b9b" fill-opacity=".54970759" color="#000" display="block" overflow="visible" rx=".15156493" ry=".06539088" style="marker:none"/>
    <rect width="22.000004" height="1" x="15.000002" y="21" fill="#9b9b9b" fill-opacity=".54970759" color="#000" display="block" overflow="visible" rx=".15156493" ry=".06539088" style="marker:none"/>
    <rect width="22.000004" height="1" x="15.000002" y="23" fill="#9b9b9b" fill-opacity=".54970759" color="#000" display="block" overflow="visible" rx=".15156493" ry=".06539088" style="marker:none"/>
    <rect width="9.9000053" height="1" x="14.999992" y="25" fill="#9b9b9b" fill-opacity=".54970759" color="#000" display="block" overflow="visible" rx=".06820424" ry=".06539088" style="marker:none"/>
    <rect width="22.000004" height="1" x="14.999992" y="29" fill="#9b9b9b" fill-opacity=".54970759" color="#000" display="block" overflow="visible" rx=".15156493" ry=".06539088" style="marker:none"/>
    <rect width="22.000004" height="1" x="14.999992" y="31" fill="#9b9b9b" fill-opacity=".54970759" color="#000" display="block" overflow="visible" rx=".15156493" ry=".06539088" style="marker:none"/>
    <rect width="22.000004" height="1" x="14.999992" y="33" fill="#9b9b9b" fill-opacity=".54970759" color="#000" display="block" overflow="visible" rx=".15156493" ry=".06539088" style="marker:none"/>
    <rect width="22.000004" height="1" x="14.999992" y="35" fill="#9b9b9b" fill-opacity=".54970759" color="#000" display="block" overflow="visible" rx=".15156493" ry=".06539088" style="marker:none"/>
    <rect width="15.400014" height="1" x="14.999992" y="37" fill="#9b9b9b" fill-opacity=".54970759" color="#000" display="block" overflow="visible" rx=".10609552" ry=".06539088" style="marker:none"/>
  </g>
  <g transform="translate(15.98645 17.90835) scale(.66538)">
    <path fill="url(#v)" fill-rule="evenodd" d="M40.65864 37.967922a16.528622 3.9332814 0 1 1-33.0572434 0 16.528622 3.9332814 0 1 1 33.0572434 0z" color="#000" opacity=".17112298" overflow="visible" style="marker:none" transform="matrix(1.44643 0 0 1.51999 -10.97453 -17.75168)"/>
    <path fill="#dcdcdc" fill-rule="evenodd" stroke="url(#w)" stroke-linecap="round" stroke-miterlimit="10" stroke-width="3.0058157" d="M18.627569 3.1435548c-8.13913 0-14.7448008 6.6056711-14.7448008 14.7448012 0 8.13913 6.6056708 14.744802 14.7448008 14.744802 3.479555 0 6.551001-1.384393 9.073723-3.402647-.205377 1.006881-.078035 2.035368.756144 2.759925l10.964084 9.52741c1.233416 1.071329 3.087462.93096 4.15879-.302457 1.071328-1.233418.930959-3.087462-.302457-4.15879l-10.964084-9.527411c-.671527-.583279-1.492878-.755969-2.306238-.642722 1.9867-2.512422 3.364839-5.548803 3.364839-8.99811 0-8.1391301-6.605671-14.7448012-14.744801-14.7448012zm-.075615 1.2261833c7.639459 0 13.291775 4.7889505 13.291775 13.2917749 0 8.675113-5.81669 13.291775-13.291775 13.291775-7.302949 0-13.2917734-5.478092-13.2917734-13.291775 0-7.9841069 5.8246384-13.291775 13.2917734-13.2917749z" color="#000" overflow="visible" style="marker:none"/>
    <path fill="#dcdcdc" fill-rule="evenodd" d="M18.602905 3.0803551c-8.16544 0-14.7924642 6.627024-14.7924642 14.7924639 0 8.16544 6.6270242 14.792464 14.7924642 14.792464 3.490803 0 6.572177-1.388867 9.103055-3.413645-.206041 1.010136-.078288 2.041947.758587 2.768846l10.999526 9.558207c1.237403 1.074792 3.097442.93397 4.172233-.303435 1.074791-1.237404.933968-3.097442-.303435-4.172233l-10.999525-9.558208c-.673698-.585164-1.497704-.758413-2.313693-.644799 1.993122-2.520544 3.375716-5.56674 3.375716-9.027197 0-8.1654399-6.627024-14.7924639-14.792464-14.7924639zm-.075859 3.1860692c6.281108 2e-7 11.378818 5.0977107 11.378818 11.3788187s-5.09771 11.378818-11.378818 11.378818c-6.281108 0-11.3788184-5.09771-11.3788184-11.378818 2e-7-6.281108 5.0977104-11.3788187 11.3788184-11.3788187z" color="#000" overflow="visible" style="marker:none"/>
    <path fill="url(#x)" fill-rule="evenodd" d="M39.507004 41.57769c-.478672-2.273187 1.39733-4.811422 3.584053-4.788375L32.33069 27.531204c-2.944791-.056706-4.269502 2.272616-3.776814 4.599922l10.953128 9.446564z" color="#000" overflow="visible" style="marker:none"/>
    <path fill="none" stroke="url(#y)" stroke-linecap="round" stroke-miterlimit="10" stroke-width="1.206434" d="M28.549437 18.920233a11.048544 11.048544 0 1 1-22.0970883 0 11.048544 11.048544 0 1 1 22.0970883 0z" color="#000" overflow="visible" style="marker:none" transform="translate(-3.425346 -6.177033) scale(1.24574)"/>
    <rect width="19.048439" height="4.4404783" x="40.373337" y=".14086054" fill="none" stroke="#fff" stroke-linecap="round" stroke-miterlimit="10" stroke-width="1.5029539" color="#000" opacity=".43315509" overflow="visible" rx="3.2112026" ry="2.837393" style="marker:none" transform="matrix(.75299 .65804 -.6489 .76087 0 0)"/>
    <path fill="url(#z)" fill-rule="evenodd" stroke="#3063a3" stroke-linecap="round" stroke-miterlimit="10" stroke-width="1.0745695" d="M25.897786 18.478292a8.3085051 8.3085051 0 1 1-16.61701 0 8.3085051 8.3085051 0 1 1 16.61701 0z" color="#000" style="marker:none" transform="translate(-6.224338 -8.298958) scale(1.39861)"/>
    <path fill="url(#A)" fill-rule="evenodd" d="M18.156915 7.3966938c-5.20759 0-9.4245469 4.2169572-9.4245469 9.4245472 0 1.503975.4203072 2.887773 1.0471719 4.149903 1.25238.461613 2.582757.775683 3.994767.775683 6.170955 0 11.099282-4.861637 11.480106-10.937129-1.730964-2.0455312-4.210039-3.4130042-7.097498-3.4130042z" color="#000" opacity=".83422458" overflow="visible" style="marker:none"/>
  </g>
</svg>