<?xml version="1.0" encoding="UTF-8" standalone="no"?>
<svg xmlns="http://www.w3.org/2000/svg" xmlns:xlink="http://www.w3.org/1999/xlink" width="48" height="48">
  <defs>
    <linearGradient id="d">
      <stop offset="0"/>
      <stop offset="1" stop-opacity="0"/>
    </linearGradient>
    <linearGradient id="a">
      <stop offset="0" stop-opacity="0"/>
      <stop offset=".5"/>
      <stop offset="1" stop-opacity="0"/>
    </linearGradient>
    <linearGradient xlink:href="#a" id="j" x1="302.85715" x2="302.85715" y1="366.64789" y2="609.50507" gradientTransform="matrix(2.77439 0 0 1.9697 -1892.179 -872.8854)" gradientUnits="userSpaceOnUse"/>
    <linearGradient id="c">
      <stop offset="0" stop-color="#204a87"/>
      <stop offset="1" stop-color="#204a87" stop-opacity="0"/>
    </linearGradient>
    <linearGradient id="b">
      <stop offset="0" stop-color="#fff"/>
      <stop offset="1" stop-color="#e0e0e0"/>
    </linearGradient>
    <linearGradient xlink:href="#b" id="h" x1="17.88068" x2="17.88068" y1="11.072588" y2="21.767578" gradientTransform="matrix(.99385 0 0 .98482 -.192265 -.512678)" gradientUnits="userSpaceOnUse"/>
    <linearGradient xlink:href="#c" id="i" x1="13.267747" x2="13.267747" y1="7.7190704" y2="12.480761" gradientUnits="userSpaceOnUse"/>
    <linearGradient xlink:href="#b" id="m" x1="17.88068" x2="17.88068" y1="11.072588" y2="21.767578" gradientTransform="matrix(.99385 0 0 .98482 -.192265 -.512678)" gradientUnits="userSpaceOnUse"/>
    <linearGradient xlink:href="#c" id="n" x1="13.267747" x2="13.267747" y1="7.7190704" y2="12.480761" gradientUnits="userSpaceOnUse"/>
    <linearGradient xlink:href="#a" id="e" x1="302.85715" x2="302.85715" y1="366.64789" y2="609.50507" gradientTransform="matrix(2.77439 0 0 1.9697 -1892.179 -872.8854)" gradientUnits="userSpaceOnUse"/>
    <radialGradient xlink:href="#d" id="l" cx="605.71429" cy="486.64789" r="117.14286" fx="605.71429" fy="486.64789" gradientTransform="matrix(-2.77439 0 0 1.9697 112.7623 -872.8854)" gradientUnits="userSpaceOnUse"/>
    <radialGradient xlink:href="#d" id="k" cx="605.71429" cy="486.64789" r="117.14286" fx="605.71429" fy="486.64789" gradientTransform="matrix(2.77439 0 0 1.9697 -1891.633 -872.8854)" gradientUnits="userSpaceOnUse"/>
    <radialGradient xlink:href="#d" id="f" cx="605.71429" cy="486.64789" r="117.14286" fx="605.71429" fy="486.64789" gradientTransform="matrix(2.77439 0 0 1.9697 -1891.633 -872.8854)" gradientUnits="userSpaceOnUse"/>
    <radialGradient xlink:href="#d" id="g" cx="605.71429" cy="486.64789" r="117.14286" fx="605.71429" fy="486.64789" gradientTransform="matrix(-2.77439 0 0 1.9697 112.7623 -872.8854)" gradientUnits="userSpaceOnUse"/>
  </defs>
  <g color="#000">
    <path fill="url(#e)" d="M-1559.2523-150.69685h1339.6335v478.35718h-1339.6335z" opacity=".40206185" overflow="visible" style="marker:none" transform="matrix(.0179 0 0 .02087 33.54249 24.0286)"/>
    <path fill="url(#f)" d="M-219.61876-150.68038v478.33079c142.874166.90045 345.40022-107.16966 345.40014-239.196175 0-132.026537-159.436816-239.134595-345.40014-239.134615z" opacity=".40206185" overflow="visible" style="marker:none" transform="matrix(.0179 0 0 .02087 33.54249 24.0286)"/>
    <path fill="url(#g)" d="M-1559.2523-150.68038v478.33079c-142.8742.90045-345.4002-107.16966-345.4002-239.196175 0-132.026537 159.4368-239.134595 345.4002-239.134615z" opacity=".40206185" overflow="visible" style="marker:none" transform="matrix(.0179 0 0 .02087 33.54249 24.0286)"/>
    <g transform="matrix(1.81428 0 0 1.59915 -7.071394 -9.273977)">
      <rect width="15.987699" height="15.642846" x="5.2738938" y="7.3579211" fill="url(#h)" fill-rule="evenodd" stroke="#8d8d8d" stroke-width=".58708906" overflow="visible" rx=".60969371" ry=".69171613" style="marker:none"/>
      <rect width="14.330762" height="2.5013354" x="6.102366" y="8.3006659" fill="url(#i)" fill-rule="evenodd" overflow="visible" rx=".12251196" ry=".13899347" style="marker:none"/>
      <rect width="14.758596" height="14.440255" x="5.8884473" y="7.959219" fill="none" stroke="#fff" stroke-opacity=".47878789" stroke-width=".58708918" overflow="visible" rx=".22271593" ry=".22271593" style="marker:none"/>
    </g>
    <path fill="url(#j)" d="M-1559.2523-150.69685h1339.6335v478.35718h-1339.6335z" opacity=".40206185" overflow="visible" style="marker:none" transform="matrix(.0179 0 0 .02087 46.04249 38.0286)"/>
    <path fill="url(#k)" d="M-219.61876-150.68038v478.33079c142.874166.90045 345.40022-107.16966 345.40014-239.196175 0-132.026537-159.436816-239.134595-345.40014-239.134615z" opacity=".40206185" overflow="visible" style="marker:none" transform="matrix(.0179 0 0 .02087 46.04249 38.0286)"/>
    <path fill="url(#l)" d="M-1559.2523-150.68038v478.33079c-142.8742.90045-345.4002-107.16966-345.4002-239.196175 0-132.026537 159.4368-239.134595 345.4002-239.134615z" opacity=".40206185" overflow="visible" style="marker:none" transform="matrix(.0179 0 0 .02087 46.04249 38.0286)"/>
    <g transform="matrix(1.81428 0 0 1.59915 5.952841 4.810926)">
      <rect width="15.987699" height="15.642846" x="5.2738938" y="7.3579211" fill="url(#m)" fill-rule="evenodd" stroke="#8d8d8d" stroke-width=".58708906" overflow="visible" rx=".60969371" ry=".69171613" style="marker:none"/>
      <rect width="14.330762" height="2.5013354" x="6.102366" y="8.3006659" fill="url(#n)" fill-rule="evenodd" overflow="visible" rx=".12251196" ry=".13899347" style="marker:none"/>
      <rect width="14.912238" height="14.590583" x="5.8116298" y="7.8840585" fill="none" stroke="#fff" stroke-opacity=".54545456" stroke-width=".5870893" overflow="visible" rx=".14454938" ry=".14454938" style="marker:none"/>
    </g>
  </g>
</svg>